<mxfile host="65bd71144e">
    <diagram id="nQFmIk4k9wZ3C80wgvNZ" name="Page-1">
        <mxGraphModel dx="1506" dy="657" grid="1" gridSize="10" guides="1" tooltips="1" connect="1" arrows="1" fold="1" page="1" pageScale="1" pageWidth="1920" pageHeight="1200" math="0" shadow="0">
            <root>
                <mxCell id="0"/>
                <mxCell id="1" parent="0"/>
                <mxCell id="5" value="" style="shape=process;whiteSpace=wrap;html=1;backgroundOutline=1;rotation=90;size=0.2777777777777778;" vertex="1" parent="1">
                    <mxGeometry x="915" y="100" width="90" height="100" as="geometry"/>
                </mxCell>
                <mxCell id="6" value="0" style="text;strokeColor=none;align=center;fillColor=none;html=1;verticalAlign=middle;whiteSpace=wrap;rounded=0;" vertex="1" parent="1">
                    <mxGeometry x="930" y="105" width="60" height="25" as="geometry"/>
                </mxCell>
                <mxCell id="7" value="1.1" style="text;strokeColor=none;align=center;fillColor=none;html=1;verticalAlign=middle;whiteSpace=wrap;rounded=0;" vertex="1" parent="1">
                    <mxGeometry x="930" y="167.5" width="60" height="25" as="geometry"/>
                </mxCell>
                <mxCell id="32" value="Login" style="text;strokeColor=none;align=center;fillColor=none;html=1;verticalAlign=middle;whiteSpace=wrap;rounded=0;" vertex="1" parent="1">
                    <mxGeometry x="930" y="137.5" width="60" height="30" as="geometry"/>
                </mxCell>
                <mxCell id="74" value="" style="shape=process;whiteSpace=wrap;html=1;backgroundOutline=1;rotation=90;size=0.2777777777777778;" vertex="1" parent="1">
                    <mxGeometry x="1075" y="262.5" width="90" height="100" as="geometry"/>
                </mxCell>
                <mxCell id="75" value="2" style="text;strokeColor=none;align=center;fillColor=none;html=1;verticalAlign=middle;whiteSpace=wrap;rounded=0;" vertex="1" parent="1">
                    <mxGeometry x="1090" y="267.5" width="60" height="25" as="geometry"/>
                </mxCell>
                <mxCell id="76" value="1.1.2" style="text;strokeColor=none;align=center;fillColor=none;html=1;verticalAlign=middle;whiteSpace=wrap;rounded=0;" vertex="1" parent="1">
                    <mxGeometry x="1090" y="337.5" width="60" height="25" as="geometry"/>
                </mxCell>
                <mxCell id="77" value="Admin Dashboard" style="text;strokeColor=none;align=center;fillColor=none;html=1;verticalAlign=middle;whiteSpace=wrap;rounded=0;" vertex="1" parent="1">
                    <mxGeometry x="1090" y="300" width="60" height="30" as="geometry"/>
                </mxCell>
                <mxCell id="102" value="" style="shape=process;whiteSpace=wrap;html=1;backgroundOutline=1;rotation=90;size=0.2777777777777778;" vertex="1" parent="1">
                    <mxGeometry x="750" y="262.5" width="90" height="100" as="geometry"/>
                </mxCell>
                <mxCell id="103" value="1" style="text;strokeColor=none;align=center;fillColor=none;html=1;verticalAlign=middle;whiteSpace=wrap;rounded=0;" vertex="1" parent="1">
                    <mxGeometry x="765" y="267.5" width="60" height="25" as="geometry"/>
                </mxCell>
                <mxCell id="104" value="1.1.1" style="text;strokeColor=none;align=center;fillColor=none;html=1;verticalAlign=middle;whiteSpace=wrap;rounded=0;" vertex="1" parent="1">
                    <mxGeometry x="760" y="337.5" width="60" height="25" as="geometry"/>
                </mxCell>
                <mxCell id="105" value="User dashboard" style="text;strokeColor=none;align=center;fillColor=none;html=1;verticalAlign=middle;whiteSpace=wrap;rounded=0;" vertex="1" parent="1">
                    <mxGeometry x="765" y="300" width="60" height="30" as="geometry"/>
                </mxCell>
                <mxCell id="106" value="" style="shape=process;whiteSpace=wrap;html=1;backgroundOutline=1;rotation=90;size=0.2777777777777778;" vertex="1" parent="1">
                    <mxGeometry x="820" y="415" width="90" height="100" as="geometry"/>
                </mxCell>
                <mxCell id="107" value="1.1" style="text;strokeColor=none;align=center;fillColor=none;html=1;verticalAlign=middle;whiteSpace=wrap;rounded=0;" vertex="1" parent="1">
                    <mxGeometry x="835" y="420" width="60" height="25" as="geometry"/>
                </mxCell>
                <mxCell id="108" value="1.1.1.1" style="text;strokeColor=none;align=center;fillColor=none;html=1;verticalAlign=middle;whiteSpace=wrap;rounded=0;" vertex="1" parent="1">
                    <mxGeometry x="835" y="490" width="60" height="25" as="geometry"/>
                </mxCell>
                <mxCell id="109" value="Registration&amp;nbsp;" style="text;strokeColor=none;align=center;fillColor=none;html=1;verticalAlign=middle;whiteSpace=wrap;rounded=0;" vertex="1" parent="1">
                    <mxGeometry x="835" y="452.5" width="60" height="30" as="geometry"/>
                </mxCell>
                <mxCell id="110" value="" style="shape=process;whiteSpace=wrap;html=1;backgroundOutline=1;rotation=90;size=0.2777777777777778;" vertex="1" parent="1">
                    <mxGeometry x="1150" y="415" width="90" height="100" as="geometry"/>
                </mxCell>
                <mxCell id="111" value="2.1" style="text;strokeColor=none;align=center;fillColor=none;html=1;verticalAlign=middle;whiteSpace=wrap;rounded=0;" vertex="1" parent="1">
                    <mxGeometry x="1165" y="420" width="60" height="25" as="geometry"/>
                </mxCell>
                <mxCell id="112" value="1.1.2.1" style="text;strokeColor=none;align=center;fillColor=none;html=1;verticalAlign=middle;whiteSpace=wrap;rounded=0;" vertex="1" parent="1">
                    <mxGeometry x="1165" y="490" width="60" height="25" as="geometry"/>
                </mxCell>
                <mxCell id="113" value="Manage user details" style="text;strokeColor=none;align=center;fillColor=none;html=1;verticalAlign=middle;whiteSpace=wrap;rounded=0;" vertex="1" parent="1">
                    <mxGeometry x="1165" y="452.5" width="60" height="30" as="geometry"/>
                </mxCell>
                <mxCell id="114" value="" style="shape=process;whiteSpace=wrap;html=1;backgroundOutline=1;rotation=90;size=0.2777777777777778;" vertex="1" parent="1">
                    <mxGeometry x="820" y="570" width="90" height="100" as="geometry"/>
                </mxCell>
                <mxCell id="115" value="1.2" style="text;strokeColor=none;align=center;fillColor=none;html=1;verticalAlign=middle;whiteSpace=wrap;rounded=0;" vertex="1" parent="1">
                    <mxGeometry x="835" y="575" width="60" height="25" as="geometry"/>
                </mxCell>
                <mxCell id="116" value="1.1.1.1" style="text;strokeColor=none;align=center;fillColor=none;html=1;verticalAlign=middle;whiteSpace=wrap;rounded=0;" vertex="1" parent="1">
                    <mxGeometry x="835" y="645" width="60" height="25" as="geometry"/>
                </mxCell>
                <mxCell id="117" value="Property search" style="text;strokeColor=none;align=center;fillColor=none;html=1;verticalAlign=middle;whiteSpace=wrap;rounded=0;" vertex="1" parent="1">
                    <mxGeometry x="835" y="607.5" width="60" height="30" as="geometry"/>
                </mxCell>
                <mxCell id="118" value="" style="shape=process;whiteSpace=wrap;html=1;backgroundOutline=1;rotation=90;size=0.2777777777777778;" vertex="1" parent="1">
                    <mxGeometry x="1150" y="565" width="90" height="100" as="geometry"/>
                </mxCell>
                <mxCell id="119" value="2.2" style="text;strokeColor=none;align=center;fillColor=none;html=1;verticalAlign=middle;whiteSpace=wrap;rounded=0;" vertex="1" parent="1">
                    <mxGeometry x="1165" y="570" width="60" height="25" as="geometry"/>
                </mxCell>
                <mxCell id="120" value="1.1.2.1" style="text;strokeColor=none;align=center;fillColor=none;html=1;verticalAlign=middle;whiteSpace=wrap;rounded=0;" vertex="1" parent="1">
                    <mxGeometry x="1165" y="640" width="60" height="25" as="geometry"/>
                </mxCell>
                <mxCell id="121" value="Add Property" style="text;strokeColor=none;align=center;fillColor=none;html=1;verticalAlign=middle;whiteSpace=wrap;rounded=0;" vertex="1" parent="1">
                    <mxGeometry x="1165" y="602.5" width="60" height="30" as="geometry"/>
                </mxCell>
                <mxCell id="122" value="" style="shape=process;whiteSpace=wrap;html=1;backgroundOutline=1;rotation=90;size=0.2777777777777778;" vertex="1" parent="1">
                    <mxGeometry x="820" y="715" width="90" height="100" as="geometry"/>
                </mxCell>
                <mxCell id="123" value="1.3" style="text;strokeColor=none;align=center;fillColor=none;html=1;verticalAlign=middle;whiteSpace=wrap;rounded=0;" vertex="1" parent="1">
                    <mxGeometry x="835" y="720" width="60" height="25" as="geometry"/>
                </mxCell>
                <mxCell id="124" value="1.1.1.1" style="text;strokeColor=none;align=center;fillColor=none;html=1;verticalAlign=middle;whiteSpace=wrap;rounded=0;" vertex="1" parent="1">
                    <mxGeometry x="835" y="790" width="60" height="25" as="geometry"/>
                </mxCell>
                <mxCell id="125" value="Property sale" style="text;strokeColor=none;align=center;fillColor=none;html=1;verticalAlign=middle;whiteSpace=wrap;rounded=0;" vertex="1" parent="1">
                    <mxGeometry x="835" y="752.5" width="60" height="30" as="geometry"/>
                </mxCell>
                <mxCell id="126" value="" style="shape=process;whiteSpace=wrap;html=1;backgroundOutline=1;rotation=90;size=0.2777777777777778;" vertex="1" parent="1">
                    <mxGeometry x="1150" y="715" width="90" height="100" as="geometry"/>
                </mxCell>
                <mxCell id="127" value="2.3" style="text;strokeColor=none;align=center;fillColor=none;html=1;verticalAlign=middle;whiteSpace=wrap;rounded=0;" vertex="1" parent="1">
                    <mxGeometry x="1165" y="720" width="60" height="25" as="geometry"/>
                </mxCell>
                <mxCell id="128" value="1.1.2.1" style="text;strokeColor=none;align=center;fillColor=none;html=1;verticalAlign=middle;whiteSpace=wrap;rounded=0;" vertex="1" parent="1">
                    <mxGeometry x="1165" y="790" width="60" height="25" as="geometry"/>
                </mxCell>
                <mxCell id="129" value="Delete property" style="text;strokeColor=none;align=center;fillColor=none;html=1;verticalAlign=middle;whiteSpace=wrap;rounded=0;" vertex="1" parent="1">
                    <mxGeometry x="1165" y="752.5" width="60" height="30" as="geometry"/>
                </mxCell>
                <mxCell id="130" value="" style="shape=process;whiteSpace=wrap;html=1;backgroundOutline=1;rotation=90;size=0.2777777777777778;" vertex="1" parent="1">
                    <mxGeometry x="1150" y="860" width="90" height="100" as="geometry"/>
                </mxCell>
                <mxCell id="131" value="2.4" style="text;strokeColor=none;align=center;fillColor=none;html=1;verticalAlign=middle;whiteSpace=wrap;rounded=0;" vertex="1" parent="1">
                    <mxGeometry x="1165" y="865" width="60" height="25" as="geometry"/>
                </mxCell>
                <mxCell id="132" value="1.1.2.1" style="text;strokeColor=none;align=center;fillColor=none;html=1;verticalAlign=middle;whiteSpace=wrap;rounded=0;" vertex="1" parent="1">
                    <mxGeometry x="1165" y="935" width="60" height="25" as="geometry"/>
                </mxCell>
                <mxCell id="133" value="Update Property" style="text;strokeColor=none;align=center;fillColor=none;html=1;verticalAlign=middle;whiteSpace=wrap;rounded=0;" vertex="1" parent="1">
                    <mxGeometry x="1165" y="897.5" width="60" height="30" as="geometry"/>
                </mxCell>
                <mxCell id="138" value="" style="shape=process;whiteSpace=wrap;html=1;backgroundOutline=1;rotation=90;size=0.2777777777777778;" vertex="1" parent="1">
                    <mxGeometry x="820" y="865" width="90" height="100" as="geometry"/>
                </mxCell>
                <mxCell id="139" value="1.4" style="text;strokeColor=none;align=center;fillColor=none;html=1;verticalAlign=middle;whiteSpace=wrap;rounded=0;" vertex="1" parent="1">
                    <mxGeometry x="835" y="870" width="60" height="25" as="geometry"/>
                </mxCell>
                <mxCell id="140" value="1.1.1.1" style="text;strokeColor=none;align=center;fillColor=none;html=1;verticalAlign=middle;whiteSpace=wrap;rounded=0;" vertex="1" parent="1">
                    <mxGeometry x="835" y="940" width="60" height="25" as="geometry"/>
                </mxCell>
                <mxCell id="141" value="View Properties" style="text;strokeColor=none;align=center;fillColor=none;html=1;verticalAlign=middle;whiteSpace=wrap;rounded=0;" vertex="1" parent="1">
                    <mxGeometry x="835" y="902.5" width="60" height="30" as="geometry"/>
                </mxCell>
                <mxCell id="142" value="" style="shape=process;whiteSpace=wrap;html=1;backgroundOutline=1;rotation=90;size=0.2777777777777778;" vertex="1" parent="1">
                    <mxGeometry x="820" y="1005" width="90" height="100" as="geometry"/>
                </mxCell>
                <mxCell id="143" value="1.5" style="text;strokeColor=none;align=center;fillColor=none;html=1;verticalAlign=middle;whiteSpace=wrap;rounded=0;" vertex="1" parent="1">
                    <mxGeometry x="835" y="1010" width="60" height="25" as="geometry"/>
                </mxCell>
                <mxCell id="144" value="1.1.1.1" style="text;strokeColor=none;align=center;fillColor=none;html=1;verticalAlign=middle;whiteSpace=wrap;rounded=0;" vertex="1" parent="1">
                    <mxGeometry x="835" y="1080" width="60" height="25" as="geometry"/>
                </mxCell>
                <mxCell id="145" value="Rent&lt;br&gt;Property&amp;nbsp;" style="text;strokeColor=none;align=center;fillColor=none;html=1;verticalAlign=middle;whiteSpace=wrap;rounded=0;" vertex="1" parent="1">
                    <mxGeometry x="835" y="1042.5" width="60" height="30" as="geometry"/>
                </mxCell>
                <mxCell id="148" value="" style="endArrow=none;html=1;entryX=1;entryY=0.5;entryDx=0;entryDy=0;" edge="1" parent="1" target="5">
                    <mxGeometry width="50" height="50" relative="1" as="geometry">
                        <mxPoint x="960" y="240" as="sourcePoint"/>
                        <mxPoint x="960" y="200" as="targetPoint"/>
                    </mxGeometry>
                </mxCell>
                <mxCell id="149" value="" style="endArrow=none;html=1;" edge="1" parent="1">
                    <mxGeometry width="50" height="50" relative="1" as="geometry">
                        <mxPoint x="800" y="240" as="sourcePoint"/>
                        <mxPoint x="960" y="240" as="targetPoint"/>
                    </mxGeometry>
                </mxCell>
                <mxCell id="150" value="" style="endArrow=none;html=1;exitX=0.585;exitY=0.004;exitDx=0;exitDy=0;exitPerimeter=0;" edge="1" parent="1" source="103">
                    <mxGeometry width="50" height="50" relative="1" as="geometry">
                        <mxPoint x="680" y="250" as="sourcePoint"/>
                        <mxPoint x="800" y="240" as="targetPoint"/>
                        <Array as="points">
                            <mxPoint x="800" y="260"/>
                        </Array>
                    </mxGeometry>
                </mxCell>
                <mxCell id="151" value="" style="endArrow=none;html=1;" edge="1" parent="1">
                    <mxGeometry width="50" height="50" relative="1" as="geometry">
                        <mxPoint x="960" y="239.9" as="sourcePoint"/>
                        <mxPoint x="1120" y="239.9" as="targetPoint"/>
                    </mxGeometry>
                </mxCell>
                <mxCell id="152" value="" style="endArrow=none;html=1;exitX=0.585;exitY=0.004;exitDx=0;exitDy=0;exitPerimeter=0;" edge="1" parent="1">
                    <mxGeometry width="50" height="50" relative="1" as="geometry">
                        <mxPoint x="1119.9299999999998" y="267.5" as="sourcePoint"/>
                        <mxPoint x="1119.83" y="239.9" as="targetPoint"/>
                        <Array as="points">
                            <mxPoint x="1119.83" y="259.9"/>
                        </Array>
                    </mxGeometry>
                </mxCell>
                <mxCell id="153" value="" style="endArrow=none;html=1;" edge="1" parent="1">
                    <mxGeometry width="50" height="50" relative="1" as="geometry">
                        <mxPoint x="760" y="1061.3333740234375" as="sourcePoint"/>
                        <mxPoint x="760" y="360" as="targetPoint"/>
                    </mxGeometry>
                </mxCell>
                <mxCell id="154" value="" style="endArrow=none;html=1;entryX=0.5;entryY=1;entryDx=0;entryDy=0;" edge="1" parent="1" target="106">
                    <mxGeometry width="50" height="50" relative="1" as="geometry">
                        <mxPoint x="760" y="465" as="sourcePoint"/>
                        <mxPoint x="810" y="470" as="targetPoint"/>
                    </mxGeometry>
                </mxCell>
                <mxCell id="155" value="" style="endArrow=none;html=1;entryX=0.531;entryY=1.012;entryDx=0;entryDy=0;entryPerimeter=0;" edge="1" parent="1" target="114">
                    <mxGeometry width="50" height="50" relative="1" as="geometry">
                        <mxPoint x="760" y="622" as="sourcePoint"/>
                        <mxPoint x="820" y="622.16" as="targetPoint"/>
                    </mxGeometry>
                </mxCell>
                <mxCell id="156" value="" style="endArrow=none;html=1;entryX=0.531;entryY=0.993;entryDx=0;entryDy=0;entryPerimeter=0;" edge="1" parent="1" target="122">
                    <mxGeometry width="50" height="50" relative="1" as="geometry">
                        <mxPoint x="760" y="768" as="sourcePoint"/>
                        <mxPoint x="803.8" y="767.9" as="targetPoint"/>
                    </mxGeometry>
                </mxCell>
                <mxCell id="157" value="" style="endArrow=none;html=1;entryX=0.5;entryY=1;entryDx=0;entryDy=0;" edge="1" parent="1" target="138">
                    <mxGeometry width="50" height="50" relative="1" as="geometry">
                        <mxPoint x="760" y="915" as="sourcePoint"/>
                        <mxPoint x="820" y="914.8" as="targetPoint"/>
                    </mxGeometry>
                </mxCell>
                <mxCell id="158" value="" style="endArrow=none;html=1;entryX=0.5;entryY=1;entryDx=0;entryDy=0;" edge="1" parent="1">
                    <mxGeometry width="50" height="50" relative="1" as="geometry">
                        <mxPoint x="760" y="1060" as="sourcePoint"/>
                        <mxPoint x="815" y="1060" as="targetPoint"/>
                    </mxGeometry>
                </mxCell>
                <mxCell id="159" value="" style="endArrow=none;html=1;entryX=0;entryY=0.75;entryDx=0;entryDy=0;" edge="1" parent="1" target="76">
                    <mxGeometry width="50" height="50" relative="1" as="geometry">
                        <mxPoint x="1090" y="920" as="sourcePoint"/>
                        <mxPoint x="1090" y="362.4999999999999" as="targetPoint"/>
                    </mxGeometry>
                </mxCell>
                <mxCell id="160" value="" style="endArrow=none;html=1;entryX=0.5;entryY=1;entryDx=0;entryDy=0;" edge="1" parent="1">
                    <mxGeometry width="50" height="50" relative="1" as="geometry">
                        <mxPoint x="1090" y="467.48" as="sourcePoint"/>
                        <mxPoint x="1145" y="467.48" as="targetPoint"/>
                    </mxGeometry>
                </mxCell>
                <mxCell id="161" value="" style="endArrow=none;html=1;entryX=0.531;entryY=1.012;entryDx=0;entryDy=0;entryPerimeter=0;" edge="1" parent="1">
                    <mxGeometry width="50" height="50" relative="1" as="geometry">
                        <mxPoint x="1090" y="624.48" as="sourcePoint"/>
                        <mxPoint x="1143.8000000000002" y="625.27" as="targetPoint"/>
                    </mxGeometry>
                </mxCell>
                <mxCell id="162" value="" style="endArrow=none;html=1;entryX=0.531;entryY=0.993;entryDx=0;entryDy=0;entryPerimeter=0;" edge="1" parent="1">
                    <mxGeometry width="50" height="50" relative="1" as="geometry">
                        <mxPoint x="1090" y="770.48" as="sourcePoint"/>
                        <mxPoint x="1145.7000000000003" y="770.27" as="targetPoint"/>
                    </mxGeometry>
                </mxCell>
                <mxCell id="163" value="" style="endArrow=none;html=1;entryX=0.5;entryY=1;entryDx=0;entryDy=0;" edge="1" parent="1">
                    <mxGeometry width="50" height="50" relative="1" as="geometry">
                        <mxPoint x="1090" y="917.48" as="sourcePoint"/>
                        <mxPoint x="1145" y="917.48" as="targetPoint"/>
                    </mxGeometry>
                </mxCell>
            </root>
        </mxGraphModel>
    </diagram>
</mxfile>